<?xml version="1.0" standalone="no"?>
<!DOCTYPE svg PUBLIC "-//W3C//DTD SVG 20010904//EN"
 "http://www.w3.org/TR/2001/REC-SVG-20010904/DTD/svg10.dtd">
<svg version="1.0" xmlns="http://www.w3.org/2000/svg"
 width="928.000000pt" height="928.000000pt" viewBox="0 0 928.000000 928.000000"
 preserveAspectRatio="xMidYMid meet">
<metadata>
Created by potrace 1.14, written by Peter Selinger 2001-2017
</metadata>
<g transform="translate(0.000000,928.000000) scale(0.100000,-0.100000)"
fill="#000000" stroke="none">
<path d="M2365 6477 c-1243 -1243 -2263 -2266 -2267 -2271 -4 -8 220 -11 752
-10 l758 2 96 -98 c53 -53 96 -96 96 -94 0 1 26 -25 58 -58 93 -99 101 -106
106 -100 3 3 6 1 6 -4 0 -7 2498 -2513 2555 -2563 5 -5 755 743 755 753 0 3
-655 662 -1455 1462 -800 801 -1455 1459 -1455 1463 0 3 511 517 1135 1141
l1134 1134 1520 -1519 1519 -1520 746 1 c411 1 749 4 753 7 8 8 -4525 4537
-4540 4536 -7 0 -1029 -1018 -2272 -2262z"/>
<path d="M4258 5332 l-378 -377 276 -275 c152 -151 287 -288 300 -303 13 -16
24 -27 24 -24 0 2 69 -66 153 -151 83 -85 160 -162 170 -171 10 -9 208 -206
440 -439 232 -233 427 -429 434 -435 161 -161 1059 -1057 1087 -1086 l39 -40
-747 -746 c-410 -410 -746 -748 -746 -751 0 -7 2360 -4 2361 4 1 4 2 486 3
1072 l2 1065 -1515 1518 c-834 834 -1518 1517 -1521 1517 -3 0 -175 -170 -382
-378z"/>
<path d="M1609 2660 c-1 -8 -2 -491 -3 -1072 l-1 -1058 1074 0 c965 0 1072 2
1061 15 -60 72 -2130 2127 -2131 2115z"/>
</g>
</svg>
