<svg width="200" height="22" fill="none" xmlns="http://www.w3.org/2000/svg"><path d="M199.847.213l.09-.191h-17.528c-5.167 0-9.569.934-13.208 2.801-3.529 1.774-6.286 4.54-7.831 7.858-1.019 2.145-1.31 4.094-.871 5.846a5.445 5.445 0 001.386 2.404 6.438 6.438 0 002.489 1.561c1.904.727 5.079 1.09 9.524 1.09h15.836l1.578-3.422h-8.903c-4.301 0-7.163-.49-8.586-1.468-1.568-1.056-1.391-3.505-.167-6.08 2.124-4.483 6.57-7.276 12.72-7.276h6.897l-1.587 3.366h5.256L200 .212h-.153zm-61.404 12.74l10.665-9.17 2.217 9.17h-12.882zm-90.688.034L58.14 4.209l1.873 8.778H47.755zM148.194 0h-6.495l-24.991 20.675L126.471.022h-10.708l-12.941 8.956-6.662 4.834h-.285l3.137-7.04-3.84-6.75H84.414L74.63 20.714 68.99.022h-11.8l-26.058 21.56h6.535l6.657-5.646H60.73l1.307 5.647h17.435l6.303-13.33c.32-.67.62-1.438.92-2.298.05.765.263 1.515.629 2.21l5.546 11.12h.934l15.861-11.076a32.342 32.342 0 002.699-2.254c-.614 1.003-1.042 1.768-1.293 2.298l-6.303 13.33h23.644l6.584-5.647h17.04l1.367 5.647h5.995L153.563 0h-5.37zM34.058 16.527c2-1.638 3.589-3.63 4.66-5.846 1.594-3.37 1.458-5.99-.407-7.858C36.446.956 32.925.022 27.75.022H10.236L8.653 3.397h12.061c6.15 0 7.935 2.71 5.812 7.192-1.225 2.606-2.311 4.982-4.873 6.046-2.34.973-4.764 1.26-9.066 1.26h-5.58l4.164-8.73H5.9L0 21.583h15.876c4.451 0 7.968-.364 10.551-1.09 2.845-.806 5.451-2.161 7.63-3.966z" fill="#231F20"/></svg>