<svg width="200" height="49" fill="none" xmlns="http://www.w3.org/2000/svg"><path d="M153.01 1.588h10.45v10.45h-10.45V1.588zm18.16 0h10.45v10.45h-10.45V1.588zm-18.16 18.084h10.45v10.451h-10.45v-10.45zm18.16 0h10.45v10.451h-10.45v-10.45zm-18.16 18.012h10.45v10.45h-10.45v-10.45zm18.16 0h10.45v10.45h-10.45v-10.45zm18.234-18.012h10.452v10.451h-10.452v-10.45zm0 18.012h10.452v10.45h-10.452v-10.45zM200 6.89a5.54 5.54 0 01-5.541 5.54A5.54 5.54 0 11200 6.89z" fill="#003767"/><path d="M194.459 12.43c3.061 0 5.54-2.48 5.54-5.54s-2.478-5.54-5.539-5.54a5.54 5.54 0 00-5.54 5.54c0 3.06 2.479 5.54 5.539 5.54z" fill="#7AC143"/><path d="M116.442 11.781l.828-3.09h5.302s7.125-.051 7.125 7.623c0 7.201-6.959 6.95-6.959 6.95h-11.433l.831-3.136h9.856s3.729 0 3.729-3.982-3.397-4.365-3.397-4.365h-5.882zm-15.467-.766l3.952-1.633v7.588s-.336 4.488-6.305 4.977h-71.2s-6.053.082-6.053-5.874V1.549L25.403 0v15.418s-.253 3.099 2.943 3.424H98.37s2.355-.162 2.607-1.958v-5.87h-.002zM93.59 25.92h4.228v4.165H93.59V25.92zm4.666 0h3.171v4.165h-3.171V25.92zM17.925 10.309v13.953s.047 5.819-7.13 5.819H.147l1.975-3.5h8.914s2.6-.19 2.6-2.366V12.344l4.288-2.035zm6.227 23.256v14.789H40.92v-3.459H28.584v-2.617h7.132v-3.326h-7.083v-2.349h12.286v-3.038H24.152zm20.33-.067h5.119l4.557 5.278 4.646-5.233h4.729l-7.611 7.982v6.697h-3.87v-6.43l-7.57-8.294zm-33.223.001c-1.75 0-11.259.042-11.259.042V48.31h10.834s8.277-.357 8.277-7.051c0-6.696-6.102-7.76-7.852-7.76zm-.922 11.33c-1.964 0-6.031.066-6.031.066v-8.25h6.669s3.879.18 3.879 3.948c0 3.769-2.555 4.235-4.517 4.235m61.87-11.287l-8.17 14.746h4l1.633-3.17h8.213l1.764 3.148h4.385L75.734 33.54h-3.527zm-.73 8.34l2.407-4.302 2.278 4.301h-4.686zm23.532-8.34l-8.167 14.746h3.996l1.635-3.17h8.215l1.762 3.148h4.387L98.535 33.54h-3.526zm-.73 8.34l2.409-4.302 2.28 4.301h-4.69zm28.857 1.196s5.451.134 5.451-4.967c0 0-.118-4.591-4.474-4.591h-13.555v14.79h4.147v-5.322h2.887l5.87 5.3h6.149l-6.475-5.21zm-8.386-3.194v-3.257h8.152s1.584.198 1.584 1.53c0 1.684-1.584 1.727-1.584 1.727h-8.152z" fill="#003767"/></svg>