<svg width="100" height="20" fill="none" xmlns="http://www.w3.org/2000/svg"><path d="M14.508 17.998l-.297 1.99H0c.588-1.377.55-2.153.55-3.148V3.162c0-.964.038-1.809-.55-3.148h13.864l.025 2.028c-.26-.107-.47-.2-.662-.288-.514-.194-1.164-.376-1.839-.37h-7.6v7.822h8.919l-.44 1.54h-8.48v7.827h8.04c1.356.025 2.705-.75 2.705-.75l-.037.168c0 .007.007.007.013.007zm21.39 1.99c.192-.983.192-2.372.037-3.505l-1.263-9.41-6.895 12.908h-1.312L19.46 6.491 18.097 16.69c-.148 1.176-.191 2.665-.068 3.297h-2.463c.477-1.02.594-1.464.817-3.14L18.611.013h1.133L27.92 15.72 36.09.014h.854l2.302 16.795c.23 1.67.402 2.152.86 3.178h-4.208zm20.752 0l-3.28-7.315h-6.598l-3.237 7.315h-2.574c.817-1.027 1.095-1.502 1.67-2.779L50.282.014h.86l7.527 16.713c.805 1.634 1.182 2.14 2.333 3.26h-4.35zm20.642 0l-3.28-7.315h-6.599l-3.236 7.315h-2.575c.817-1.027 1.095-1.502 1.67-2.779L70.923.014h.861l7.532 16.713c.805 1.634 1.183 2.14 2.334 3.26h-4.357zM95.996 20c-1.975-1.82-4.531-4.236-7.73-8.066-.917-1.082-1.56-1.22-1.975-1.245v6.151c0 .989 0 1.77.557 3.148h-4.345c.588-1.377.55-2.153.55-3.148V3.15c0-.964.038-1.81-.55-3.148h4.258c2.91 0 9.785-.263 9.785 5.481 0 3.035-2.383 4.668-5.18 5.081l-.83.081S99.61 19.612 100 20h-4.004zM90.852 9.419l-.006.006c1.832-.7 2.451-2.459 2.39-3.948-.069-1.433-.706-4.55-6.939-4.299v8.516s3.49.194 4.469-.237l.086-.038zm-22.807 1.858h5.329l-2.686-5.963-2.643 5.963zm-20.635 0h5.329l-2.686-5.963-2.643 5.963z" fill="#231F20"/></svg>