<svg width="165" height="27" fill="none" xmlns="http://www.w3.org/2000/svg"><path d="M65.253 26.242v-4.51l-4.394-6.93h2.943l2.73 4.592 2.778-4.591h2.86l-4.393 6.88v4.559h-2.524zm-10.801-4.789h3.037l-1.52-3.707-1.522 3.707h.005zm-4.51 4.789l4.904-11.521h2.318l4.904 11.52h-2.63l-1.045-2.564h-4.837l-1.044 2.565h-2.569zm-5.474 0v-9.117h-3.482v-2.322h9.479v2.322h-3.482v9.117h-2.515zm-8.809.164c-1.874 0-3.49-.608-4.854-1.829l1.488-1.78c1.122.925 2.26 1.39 3.416 1.39.513 0 .916-.099 1.208-.296a.926.926 0 00.44-.818c0-.33-.152-.592-.456-.794-.305-.201-.921-.423-1.846-.661a13.966 13.966 0 01-1.586-.481 5.16 5.16 0 01-1.151-.63 2.325 2.325 0 01-.802-.986c-.168-.398-.255-.875-.255-1.43 0-1.036.374-1.866 1.118-2.499.748-.633 1.706-.95 2.886-.95 1.623 0 3.037.486 4.25 1.456l-1.307 1.894c-1.077-.752-2.072-1.126-2.976-1.126-.469 0-.83.095-1.085.288a.887.887 0 00-.382.744c0 .37.156.65.472.834.317.185.983.407 1.994.67 1.241.33 2.158.748 2.745 1.258.588.514.884 1.245.884 2.207 0 1.11-.382 1.981-1.15 2.606-.77.625-1.785.941-3.047.941l-.004-.008zm122.778-.164v-4.526l-4.755-6.913h1.57l3.855 5.717 3.889-5.717h1.504l-4.756 6.897v4.542h-1.307zm-11.143 0V15.995h-3.839v-1.192h8.985v1.192h-3.839v10.247h-1.307zm-13.547-5.607h3.514c.872 0 1.579-.213 2.125-.637.547-.423.818-1.007.818-1.747 0-.74-.259-1.262-.777-1.656-.518-.399-1.233-.596-2.149-.596h-3.531v4.64-.004zm-1.291 5.607v-11.44h4.92c1.406 0 2.491.383 3.252 1.143.587.588.883 1.353.883 2.29s-.283 1.656-.851 2.224c-.567.567-1.319.937-2.256 1.11l3.514 4.673h-1.586l-3.317-4.444h-3.268v4.444h-1.291zm-10.945 0v-11.44h8.27v1.176h-6.976v3.905h6.244v1.176h-6.244v4.003h7.058v1.176h-8.348l-.004.004zm-9.622-5.212h2.827c.95 0 1.706-.23 2.282-.695.571-.464.859-1.08.859-1.854 0-.772-.276-1.41-.826-1.837-.551-.431-1.299-.645-2.249-.645h-2.893v5.03zm-1.291 5.212v-11.44h4.283c1.307 0 2.347.33 3.12.983.772.654 1.159 1.546 1.159 2.68 0 1.134-.428 2.109-1.283 2.762-.855.654-1.923.982-3.21.982h-2.778v4.037h-1.291v-.004zm-11.772-2.368c.855.917 1.932 1.373 3.227 1.373 1.294 0 2.367-.456 3.21-1.365.842-.908 1.266-2.03 1.266-3.358 0-1.327-.428-2.433-1.283-3.35-.855-.916-1.931-1.372-3.226-1.372s-2.368.456-3.21 1.364c-.843.909-1.266 2.03-1.266 3.358 0 1.328.427 2.434 1.282 3.35zm7.395.826c-1.102 1.16-2.499 1.739-4.201 1.739-1.702 0-3.095-.576-4.184-1.73-1.09-1.155-1.636-2.549-1.636-4.185 0-1.636.55-3.012 1.652-4.176 1.102-1.159 2.499-1.738 4.201-1.738 1.701 0 3.095.575 4.184 1.73s1.636 2.548 1.636 4.184c0 1.636-.551 3.013-1.652 4.176zm-20.034-4.06h3.514c.872 0 1.579-.214 2.125-.638.547-.423.818-1.007.818-1.747 0-.74-.259-1.261-.776-1.656-.518-.399-1.234-.596-2.15-.596h-3.53v4.64-.004zm-1.29 5.606v-11.44h4.92c1.405 0 2.49.383 3.25 1.144.589.587.884 1.352.884 2.289s-.283 1.656-.85 2.224c-.568.567-1.32.937-2.257 1.11l3.514 4.673h-1.586l-3.317-4.443h-3.268v4.443h-1.29zm-9.623-5.212h2.828c.95 0 1.706-.23 2.281-.695.572-.464.86-1.08.86-1.853 0-.773-.276-1.41-.827-1.838-.55-.431-1.298-.645-2.248-.645h-2.894v5.031zm-1.29 5.212v-11.44h4.283c1.307 0 2.347.33 3.12.983.772.654 1.158 1.546 1.158 2.68 0 1.135-.427 2.109-1.282 2.762-.855.654-1.924.983-3.21.983h-2.779v4.036h-1.29v-.004z" fill="#231F20"/><path fill-rule="evenodd" clip-rule="evenodd" d="M12.35 12.415l2.368-2.367c3.412 3.39 6.075 6.091 9.486 9.482v6.716H16.79l4.694-4.694-9.138-9.137h.005zM5.24 26.242v-6.716l6.72 6.716H5.24z" fill="#231F20"/><path fill-rule="evenodd" clip-rule="evenodd" d="M14.372 23.915L5.24 14.782H.5L14.722.561l14.225 14.221h-4.743l-9.487-9.486-7.11 7.11 9.137 9.142-2.372 2.367z" fill="#231F20"/></svg>