<svg xmlns="http://www.w3.org/2000/svg" width="165" height="29" fill="none"><path fill-rule="evenodd" clip-rule="evenodd" d="M13.577 13.891l2.85-2.85c3.712 3.681 7.265 7.215 10.977 10.907v6.473H19.09l4.533-4.533L13.567 13.9l.01-.01zM5.47 28.411v-6.473l6.473 6.473H5.47zm32.076-13.223c.455.514.89.89 1.346 1.158.435.247.88.376 1.316.376.406 0 .733-.109 1-.327.267-.218.396-.505.396-.831 0-.376-.11-.663-.347-.861-.218-.208-.732-.406-1.534-.624-1.099-.297-1.86-.673-2.316-1.158-.455-.475-.693-1.108-.693-1.94 0-1.079.357-1.94 1.08-2.613.702-.692 1.642-1.02 2.79-1.02.614 0 1.208.08 1.752.248a5.177 5.177 0 011.564.753l-.96 2.197a4.181 4.181 0 00-1.07-.673 2.997 2.997 0 00-1.078-.218c-.356 0-.663.099-.89.267a.78.78 0 00-.347.673c0 .277.099.505.297.673.208.169.594.327 1.178.485l.128.03c1.257.346 2.069.703 2.465 1.109.267.267.475.613.614.99.138.395.207.81.207 1.286 0 1.188-.396 2.148-1.178 2.87-.771.723-1.82 1.08-3.117 1.08-.782 0-1.485-.13-2.128-.397-.644-.267-1.257-.693-1.851-1.257l1.376-2.276zm11.897 3.622v-8.56h-2.505V7.596h8.077v2.653H52.51v8.561h-3.069zm6.78 0l3.87-11.204h3.82l3.87 11.204h-3.039l-.564-2.009h-4.345l-.584 2.01h-3.038.01zm4.275-4.186h3.039l-1.148-3.702c-.03-.109-.08-.297-.139-.545l-.237-.96c-.06.268-.13.535-.208.782-.06.248-.129.485-.188.723l-1.129 3.702h.01zM71.96 18.81v-5.107l-3.92-6.097h3.514l1.504 2.88s.03.05.05.08c.158.316.267.593.326.88.05-.247.159-.534.327-.84.03-.05.05-.1.06-.11l1.484-2.88h3.514l-3.92 6.097v5.107h-2.95l.01-.01z" fill="#fff"/><path d="M82.82 13.783v5.028h-1.713V7.607h2.762c.811 0 1.415.05 1.801.129.376.099.723.247 1 .455.356.248.623.614.831 1.05.208.435.297.92.297 1.454 0 .535-.089 1.02-.297 1.455-.208.456-.475.812-.831 1.07-.277.207-.624.346-1 .435-.396.079-.99.128-1.801.128h-1.05zm9.957.02v5.018h-1.713V7.607h2.544c.752 0 1.316.05 1.742.139.406.099.752.267 1.05.485.346.267.613.623.8 1.049.189.426.278.89.278 1.415 0 .891-.218 1.604-.643 2.099-.436.514-1.08.811-1.93.92l3.86 5.097h-2.05l-3.73-5.018h-.208v.01zm.109-1.415h.326c.97 0 1.614-.109 1.93-.347.317-.217.475-.613.475-1.187 0-.614-.168-1.05-.505-1.297-.346-.247-.97-.376-1.9-.376h-.326v3.217-.01zm20.062.851a5.73 5.73 0 01-.436 2.257c-.316.702-.732 1.346-1.316 1.9a5.977 5.977 0 01-1.94 1.287 5.944 5.944 0 01-2.286.435 5.774 5.774 0 01-2.306-.455 6.029 6.029 0 01-1.94-1.267 5.654 5.654 0 01-1.297-1.9 5.877 5.877 0 01-.435-2.257c0-.802.158-1.554.435-2.276a5.964 5.964 0 011.297-1.9 5.814 5.814 0 011.94-1.268 6.08 6.08 0 012.306-.435c.802 0 1.564.138 2.306.435a5.5 5.5 0 011.93 1.267c.584.564 1 1.208 1.316 1.91a5.8 5.8 0 01.436 2.257l-.01.01zm-1.9 0a4.22 4.22 0 00-.317-1.613 4.182 4.182 0 00-.891-1.366 4.05 4.05 0 00-1.296-.91 4.153 4.153 0 00-1.584-.317 4.06 4.06 0 00-2.9 1.227 4.347 4.347 0 00-.881 1.346 4.284 4.284 0 00-.317 1.633c0 .584.109 1.099.317 1.603.208.515.505.96.881 1.366a4.06 4.06 0 002.9 1.228c.544 0 1.069-.11 1.564-.317.485-.208.92-.515 1.316-.91.396-.406.693-.842.891-1.367a4.17 4.17 0 00.317-1.603zm7.314.544v5.028h-1.712V7.607h2.761c.812 0 1.415.05 1.801.129.377.099.723.247 1 .455.356.248.624.614.831 1.05.208.435.297.92.297 1.454 0 .535-.089 1.02-.297 1.455-.207.456-.475.812-.831 1.07-.277.207-.623.346-1 .435-.395.079-.989.128-1.801.128h-1.049zm.109-1.484h.465c1 0 1.673-.11 2.019-.327.327-.218.505-.614.505-1.158 0-.594-.168-1.02-.535-1.267-.356-.237-1.039-.356-1.989-.356h-.465v3.118-.01zm8.136 6.522V7.607h6.255v1.554h-4.434v2.801h4.434v1.604h-4.434v3.622h4.434v1.633h-6.255zm11.669-5.018v5.018h-1.712V7.607h2.543c.753 0 1.317.05 1.742.139.406.099.752.267 1.049.485.347.267.614.623.802 1.049.188.426.277.89.277 1.415 0 .891-.218 1.604-.643 2.099-.436.514-1.079.811-1.93.92l3.86 5.097h-2.049l-3.731-5.018h-.208v.01zm.109-1.415h.326c.97 0 1.614-.109 1.93-.347.317-.217.466-.613.466-1.187 0-.614-.169-1.05-.505-1.297-.347-.247-.97-.376-1.901-.376h-.326v3.217l.01-.01zm12.194-3.227v9.66h-1.822v-9.66h-2.979V7.607h7.76v1.554h-2.959zm8.383 9.66v-5.127l-3.781-6.077h1.91l2.356 3.81c.059.1.128.219.218.377.079.158.158.326.247.515.079-.189.139-.347.218-.505.079-.168.168-.317.247-.436l2.415-3.76h1.821l-3.86 6.076v5.127h-1.801.01zM82.919 12.3h.475c1 0 1.672-.11 2.019-.327.327-.218.505-.614.505-1.158 0-.594-.169-1.02-.535-1.267-.356-.237-1.04-.356-1.99-.356h-.474v3.118-.01z" fill="#fff"/><path fill-rule="evenodd" clip-rule="evenodd" d="M15.467 26.481l-9.928-9.927H.383L16.437.5 32.5 16.554h-5.157L16.437 5.647 8.103 13.97l9.937 9.937-2.573 2.573z" fill="#fff"/><path d="M162.36 24.303h.564v2.96c0 .297.03.524.089.673.159.356.456.534.901.534.287 0 .524-.079.703-.237l-.198-.307-.06.05s-.099.059-.178.089a.68.68 0 01-.247.04c-.396 0-.594-.248-.594-.733v-3.059h1.029v-.386h-1.029V22.82h-.416v1.108h-.564v.386-.01zm-.762 4.108v-3.118c0-.435-.129-.782-.386-1.049-.257-.267-.594-.396-1.01-.396-.148 0-.297.02-.435.07a2.23 2.23 0 00-.337.148c-.079.06-.158.119-.237.198-.07.08-.119.129-.139.148-.02.03-.039.05-.049.07l-.03-.564h-.396v4.493h.426v-3.029c0-.336.118-.613.356-.831.238-.218.495-.337.782-.337a.96.96 0 01.742.317c.188.208.287.475.287.802v3.078h.426zm-6.691-3.138c0-.287.099-.534.297-.742.198-.208.455-.307.772-.307s.574.1.782.307c.208.208.307.455.307.742v.604h-2.158v-.604zm2.158 1.822c-.01.287-.119.524-.327.722a1.087 1.087 0 01-.762.287c-.307 0-.564-.099-.772-.307a1.04 1.04 0 01-.297-.742v-.792h2.573v-.95c0-.435-.138-.782-.415-1.059-.277-.277-.634-.406-1.079-.406-.445 0-.822.139-1.089.406s-.406.624-.406 1.05v1.711c0 .436.139.782.406 1.06.277.277.634.405 1.089.405.426 0 .772-.128 1.049-.386.277-.257.426-.594.445-1h-.415zm-5.959 1.316v-3.108c0-.326.099-.584.297-.782a.967.967 0 01.703-.297c.238 0 .436.08.594.248a.85.85 0 01.247.633v3.296h.416v-3.276c0-.386-.119-.703-.356-.93a1.166 1.166 0 00-.861-.347c-.149 0-.287.02-.426.07a2.26 2.26 0 00-.336.148c-.08.06-.159.119-.238.198-.069.08-.119.129-.139.148-.019.03-.039.05-.049.07l-.099-.149c-.059-.109-.178-.217-.356-.326a1.17 1.17 0 00-.624-.159c-.218 0-.416.06-.604.169-.188.108-.306.197-.356.267-.049.069-.089.119-.119.158l-.02-.524h-.405v4.493h.415v-2.999c0-.327.099-.604.307-.831.208-.238.446-.347.733-.347.237 0 .435.09.593.258a.879.879 0 01.248.633v3.296h.416l.019-.01zm-5.78-4.108h.564v2.96c0 .297.03.524.089.673.159.356.456.534.901.534.287 0 .525-.079.703-.237l-.198-.307-.059.05s-.099.059-.179.089a.68.68 0 01-.247.04c-.396 0-.594-.248-.594-.733v-3.059h1.029v-.386h-1.029V22.82h-.416v1.108h-.564v.386-.01zm-.653.723c-.02-.297-.148-.564-.376-.812-.238-.247-.544-.366-.93-.366s-.683.11-.931.317c-.247.208-.366.485-.366.831 0 .268.079.495.228.683.148.178.336.327.554.426.218.099.435.188.643.277.218.09.396.198.554.346a.732.732 0 01.228.535.768.768 0 01-.267.604c-.178.158-.406.237-.683.237s-.525-.089-.713-.267c-.188-.178-.277-.406-.287-.683h-.415c0 .366.128.683.376.94.247.258.594.386 1.029.386.386 0 .713-.119.98-.346.267-.238.396-.525.396-.871a1.23 1.23 0 00-.228-.752 1.414 1.414 0 00-.554-.446c-.218-.099-.436-.188-.643-.277a1.936 1.936 0 01-.555-.336.67.67 0 01-.227-.505c0-.198.079-.376.247-.515a.897.897 0 01.584-.208c.247 0 .465.08.643.228a.757.757 0 01.277.574h.436zm-6.196.247c0-.287.099-.534.297-.742.198-.208.455-.307.772-.307s.574.1.782.307c.208.208.307.455.307.742v.604h-2.158v-.604zm2.158 1.822c-.01.287-.119.524-.327.722a1.087 1.087 0 01-.762.287c-.307 0-.564-.099-.772-.307a1.04 1.04 0 01-.297-.742v-.792h2.573v-.95c0-.435-.138-.782-.415-1.059-.277-.277-.634-.406-1.079-.406-.445 0-.822.139-1.089.406s-.406.624-.406 1.05v1.711c0 .436.139.782.406 1.06.277.277.634.405 1.089.405.426 0 .772-.128 1.049-.386.277-.257.426-.594.445-1h-.415zm-6.067-3.177h-.436l1.386 4.493h.564l1.395-4.494h-.435l-1.227 4.118-1.228-4.117h-.019zm-1.158 4.493v-3.118c0-.435-.129-.782-.386-1.049-.258-.267-.594-.396-1.01-.396-.148 0-.297.02-.436.07a2.26 2.26 0 00-.336.148c-.079.06-.158.119-.238.198-.069.08-.118.129-.138.148-.02.03-.04.05-.05.07l-.029-.564h-.396v4.493h.425v-3.029c0-.336.119-.613.357-.831.237-.218.495-.337.782-.337a.96.96 0 01.742.317c.188.208.287.475.287.802v3.078h.426zm-4.346-6.295h-.475v6.295h.475v-6.295zm-3.662 3.524h-1.999v.445h1.999v-.445zm-5.057 2.771v-3.118c0-.435-.129-.782-.386-1.049-.258-.267-.594-.396-1.01-.396-.148 0-.297.02-.435.07a2.23 2.23 0 00-.337.148c-.079.06-.158.119-.237.198-.07.08-.119.129-.139.148-.02.03-.04.05-.049.07l-.03-.564h-.396v4.493h.426v-3.029c0-.336.118-.613.356-.831.237-.218.495-.337.782-.337a.96.96 0 01.742.317c.188.208.287.475.287.802v3.078h.426zm-5.672-.307c-.326 0-.593-.099-.781-.297-.198-.198-.288-.455-.288-.772v-1.722c0-.307.099-.564.297-.772.198-.208.456-.317.782-.317.327 0 .584.11.782.317.198.208.297.465.297.772v1.722c0 .307-.099.564-.297.772-.198.198-.455.297-.782.297h-.01zm0-4.256c-.445 0-.811.139-1.088.416-.277.277-.416.643-.416 1.079v1.672c0 .436.139.782.406 1.06.277.277.633.405 1.089.405.455 0 .821-.138 1.088-.405.277-.278.406-.624.406-1.06v-1.672c0-.446-.139-.802-.416-1.08-.277-.276-.633-.415-1.088-.415h.019zm-3.226-.752h.554v-.633h-.554v.633zm.059 5.315h.436v-4.494h-.436v4.494zm-3.127-4.108h.564v2.96c0 .297.029.524.089.673.158.356.455.534.9.534.287 0 .525-.079.703-.237l-.198-.307-.059.05s-.099.059-.178.089a.686.686 0 01-.248.04c-.396 0-.594-.248-.594-.733v-3.059h1.03v-.386h-1.03V22.82h-.415v1.108h-.564v.386-.01zm-2.98 1.01c0-.307.099-.564.297-.772.198-.208.456-.317.782-.317.297 0 .545.09.733.268.188.178.287.415.297.712h.425a1.426 1.426 0 00-.435-.97c-.268-.257-.604-.386-1.02-.386-.445 0-.811.139-1.089.416-.277.277-.415.643-.415 1.079v1.672c0 .436.138.782.406 1.06.277.277.633.405 1.088.405.426 0 .772-.128 1.049-.386a1.4 1.4 0 00.446-.99h-.416c-.01.288-.119.525-.317.723a1.07 1.07 0 01-.762.287c-.326 0-.594-.099-.782-.297-.198-.198-.287-.455-.287-.772v-1.732zm-4.592-1.395v3.117c0 .446.129.802.376 1.06.247.257.584.385.99.385.148 0 .297-.02.435-.069a1.85 1.85 0 00.337-.149 1.13 1.13 0 00.237-.197c.07-.08.119-.13.149-.149.02-.03.039-.05.049-.07l.03.565h.396v-4.494h-.426v3.03c0 .336-.119.623-.366.84a1.24 1.24 0 01-.851.327c-.297 0-.535-.099-.693-.297-.168-.198-.247-.475-.247-.821v-3.078h-.426.01zm-.723-.08h-.148c-.248 0-.495.08-.723.228a1.483 1.483 0 00-.485.475l-.02-.614h-.395v4.494h.415v-3.118c0-.267.12-.515.347-.742.237-.228.505-.337.801-.337h.198v-.386h.01zm-4.83.465h.564v2.96c0 .297.03.524.09.673.158.356.455.534.9.534.287 0 .525-.079.703-.237l-.198-.307-.06.05s-.098.059-.177.089a.683.683 0 01-.248.04c-.396 0-.594-.248-.594-.733v-3.059h1.03v-.386h-1.03V22.82h-.415v1.108h-.565v.386-.01zm-.653.723c-.02-.297-.148-.564-.376-.812-.237-.247-.544-.366-.93-.366s-.683.11-.93.317c-.248.208-.367.485-.367.831 0 .268.08.495.228.683.148.178.336.327.554.426.218.099.435.188.643.277.218.09.396.198.555.346a.734.734 0 01.227.535.77.77 0 01-.267.604c-.178.158-.406.237-.683.237s-.524-.089-.713-.267c-.188-.178-.277-.406-.287-.683h-.415c0 .366.128.683.376.94.247.258.594.386 1.03.386.385 0 .712-.119.979-.346.267-.238.396-.525.396-.871 0-.297-.08-.554-.228-.752a1.421 1.421 0 00-.554-.446c-.218-.099-.436-.188-.643-.277a1.926 1.926 0 01-.555-.336.67.67 0 01-.227-.505c0-.198.079-.376.247-.515a.898.898 0 01.584-.208c.248 0 .465.08.643.228a.763.763 0 01.278.574h.435zm-3.79 3.385v-3.118c0-.435-.13-.782-.387-1.049-.257-.267-.594-.396-1.01-.396-.148 0-.296.02-.435.07a2.26 2.26 0 00-.336.148c-.08.06-.159.119-.238.198-.079.08-.119.129-.138.148-.02.03-.04.05-.05.07l-.03-.564h-.395v4.493h.425v-3.029c0-.336.119-.613.356-.831.238-.218.495-.337.782-.337.307 0 .555.11.743.317.188.208.287.475.287.802v3.078h.425zm-5.672-.307c-.327 0-.594-.099-.782-.297-.198-.198-.287-.455-.287-.772v-1.722c0-.307.099-.564.297-.772.198-.208.455-.317.782-.317.326 0 .584.11.782.317.198.208.297.465.297.772v1.722c0 .307-.1.564-.297.772-.198.198-.456.297-.782.297h-.01zm0-4.256c-.445 0-.812.139-1.089.416-.277.277-.415.643-.415 1.079v1.672c0 .436.138.782.405 1.06.277.277.634.405 1.09.405.454 0 .82-.138 1.088-.405.277-.278.406-.624.406-1.06v-1.672c0-.446-.139-.802-.416-1.08-.277-.276-.633-.415-1.089-.415h.02zm-2.375 3.049h-.466v.05c0 .316-.109.583-.326.8a1.09 1.09 0 01-.802.328 1.08 1.08 0 01-.802-.337 1.099 1.099 0 01-.336-.812v-3.295a1.135 1.135 0 011.138-1.159c.327 0 .574.11.802.337.227.228.336.495.336.812h.456c0-.436-.149-.802-.456-1.109a1.56 1.56 0 00-1.128-.445c-.445 0-.841.148-1.148.445-.307.297-.455.663-.455 1.109v3.315c0 .436.158.812.465 1.109.307.307.693.455 1.138.455a1.56 1.56 0 001.128-.445c.307-.297.465-.663.465-1.109v-.04l-.01-.01zm-6.305-1.247h-2v.445h2v-.445zm-7.542-.367c0-.287.099-.534.297-.742.198-.208.455-.307.772-.307.316 0 .574.1.782.307.208.208.306.455.306.742v.604h-2.157v-.604zm2.157 1.822c-.01.287-.118.524-.326.722a1.087 1.087 0 01-.762.287c-.307 0-.564-.099-.772-.307a1.04 1.04 0 01-.297-.742v-.792h2.573v-.95c0-.436-.138-.782-.415-1.06-.278-.276-.634-.405-1.08-.405-.445 0-.82.139-1.088.406-.277.277-.406.623-.406 1.05v1.711c0 .436.139.782.406 1.06.277.276.633.405 1.089.405.425 0 .772-.128 1.049-.386.277-.257.425-.594.445-1h-.415zm-5.552-2.792h.564v2.96c0 .297.03.524.09.673.158.356.454.534.9.534.287 0 .525-.079.703-.237l-.198-.307-.06.05s-.099.059-.178.088a.684.684 0 01-.247.04c-.396 0-.594-.247-.594-.732v-3.059h1.03v-.386h-1.03V22.83h-.416v1.108h-.564v.386-.01zm-2.356 3.82a1 1 0 01-.712-.286.907.907 0 01-.297-.683.91.91 0 01.257-.663c.178-.178.406-.277.713-.327.307-.04.712-.079 1.207-.099v1.109c0 .257-.109.485-.336.673a1.266 1.266 0 01-.832.287v-.01zm1.188.288h.406v-3.138c0-.435-.119-.782-.366-1.039-.248-.267-.594-.396-1.03-.396-.366 0-.673.11-.92.317a1.28 1.28 0 00-.446.831h.426a.975.975 0 01.337-.554.897.897 0 01.613-.218c.297 0 .535.1.713.297.178.198.267.475.267.822v.346l-1.217.109c-.416.05-.743.198-1 .445a1.261 1.261 0 00-.376.93c0 .377.139.704.406.951s.594.376.98.376c.237 0 .465-.05.673-.158.208-.11.346-.188.396-.248.059-.06.099-.119.128-.158l.03.495-.02-.01zm-5.453-4.108h.564v2.96c0 .297.03.524.089.673.158.356.455.534.9.534.288 0 .525-.079.703-.237l-.198-.307-.06.05s-.098.059-.177.088a.684.684 0 01-.248.04c-.396 0-.594-.247-.594-.732v-3.059h1.03v-.386h-1.03V22.83h-.415v1.108H58.9v.386-.01zm-.654.723c-.02-.297-.148-.564-.376-.812-.237-.247-.544-.366-.93-.366s-.683.109-.93.317c-.248.208-.367.485-.367.831 0 .267.08.495.228.683.148.178.336.327.554.426.218.099.436.188.643.277.218.089.396.198.555.346a.734.734 0 01.227.535.77.77 0 01-.267.604c-.178.158-.406.237-.683.237s-.524-.089-.712-.267c-.188-.178-.278-.406-.288-.683h-.415c0 .366.129.683.376.94.247.258.594.386 1.03.386.385 0 .712-.119.98-.346.266-.238.395-.525.395-.871 0-.297-.08-.555-.228-.752a1.42 1.42 0 00-.554-.446c-.218-.099-.435-.188-.643-.277a1.928 1.928 0 01-.554-.336.67.67 0 01-.228-.505.65.65 0 01.247-.515.898.898 0 01.584-.208c.248 0 .465.08.644.228a.763.763 0 01.277.574h.435zm-6.354-2.9v6.295h2.9v-.436h-2.435v-2.682h2.138v-.435h-2.138V22.56h2.356v-.435h-2.821v.01zm-3.741 5.553c0 .267.06.465.178.583.119.12.317.179.594.179v-.386c-.149 0-.238-.03-.277-.08-.04-.05-.06-.148-.06-.296v-5.553h-.435v5.553zm-2.801.445c-.277 0-.515-.1-.713-.287a.907.907 0 01-.297-.683.91.91 0 01.258-.663c.178-.178.405-.277.712-.327a13.7 13.7 0 011.208-.099v1.109c0 .257-.11.485-.337.673a1.266 1.266 0 01-.831.287v-.01zm1.187.287h.406v-3.138c0-.435-.119-.782-.366-1.039-.247-.267-.594-.396-1.03-.396-.366 0-.672.11-.92.317a1.28 1.28 0 00-.445.831h.425a.976.976 0 01.337-.554.897.897 0 01.614-.218c.297 0 .534.1.712.297.178.198.267.475.267.822v.346l-1.217.109c-.416.05-.742.198-1 .445-.257.248-.376.555-.376.93 0 .377.139.704.406.951s.594.376.98.376c.237 0 .465-.05.673-.158.208-.11.346-.188.396-.248.06-.06.099-.119.129-.158l.03.495-.02-.01zm-6.087-3.138c0-.287.1-.534.297-.742.198-.208.456-.307.772-.307.317 0 .574.1.782.307.208.208.307.455.307.742v.604h-2.158v-.604zm2.158 1.822c-.01.287-.119.524-.327.722a1.087 1.087 0 01-.762.287c-.306 0-.564-.099-.772-.307a1.04 1.04 0 01-.297-.742v-.792h2.574v-.95c0-.436-.139-.782-.416-1.06-.277-.276-.633-.405-1.079-.405-.445 0-.821.139-1.089.406-.277.277-.405.623-.405 1.05v1.711c0 .436.138.782.405 1.06.278.276.634.405 1.09.405.425 0 .771-.128 1.048-.386.277-.257.426-.594.446-1h-.416zm-3.979-2.386a.843.843 0 01-.87.871h-1.11v-3.009h1.03c.297 0 .525.08.693.248.168.158.247.376.247.633v1.277l.01-.02zm.1 3.692h.504l-1.02-2.474a1.18 1.18 0 00.644-.476 1.27 1.27 0 00.247-.781v-1.257c0-.386-.128-.703-.386-.94-.257-.238-.593-.367-1.02-.367h-1.514v6.295h.466v-2.395h1.079l1 2.395z" fill="#fff"/></svg>