<?xml version="1.0" encoding="utf-8"?><svg viewBox="0 0 80 80" xmlns="http://www.w3.org/2000/svg" xmlns:xlink="http://www.w3.org/1999/xlink"><style>:root>svg{display:none}:root>svg:target{display:block}</style><svg fill="none" viewBox="0 0 11 12" id="icon-arrow-next" xmlns="http://www.w3.org/2000/svg"><path d="M4.95 10.9L9.9 5.95 4.95 1M10 6H0" stroke="#fff" stroke-width="1.5"/></svg><svg fill="none" viewBox="0 0 11 12" id="icon-arrow-prev" xmlns="http://www.w3.org/2000/svg"><path d="M6.05 10.9L1.1 5.95 6.05 1M1 6h10" stroke="#fff" stroke-width="1.5"/></svg><svg fill="none" viewBox="0 0 24 24" id="icon-building" xmlns="http://www.w3.org/2000/svg"><path d="M14.57 23.143H.855V6.857l6.858-6 6.857 6v16.286zM14.57 23.143h8.572v-12H14.57M7.715 23.143v-3.429M5.145 14.572h5.142M5.145 9.428h5.142" stroke="#231F20" stroke-width="1.5" stroke-linecap="round" stroke-linejoin="round"/></svg><svg fill="none" viewBox="0 0 16 16" id="icon-calendar" xmlns="http://www.w3.org/2000/svg"><path d="M1.715 2.286A1.143 1.143 0 00.572 3.429v10.857a1.143 1.143 0 001.143 1.143h12.572a1.143 1.143 0 001.142-1.143V3.429a1.143 1.143 0 00-1.142-1.143H12M.572 6.286H15.43M4 .572V4M12 .572V4M4 2.286h5.714" stroke="currentColor" stroke-linecap="round" stroke-linejoin="round"/></svg><svg fill="none" viewBox="0 0 12 8" id="icon-caret-select" xmlns="http://www.w3.org/2000/svg"><path d="M1.1 1.5l4.95 4.95L11 1.5" stroke="#231F20" stroke-width="1.5"/></svg><svg fill="none" viewBox="0 0 8 5" id="icon-caret-select-dark" xmlns="http://www.w3.org/2000/svg"><path d="M1 1l2.828 2.828L6.657 1" stroke="#8C8C8C" stroke-width="1.2"/></svg><svg fill="none" viewBox="0 0 20 20" id="icon-check-white" xmlns="http://www.w3.org/2000/svg"><path d="M16 6l-8.25 8L4 9.91" stroke="#fff" stroke-width="2" stroke-linecap="round" stroke-linejoin="round"/></svg><svg fill="none" viewBox="0 0 22 22" id="icon-close" xmlns="http://www.w3.org/2000/svg"><path d="M1 1l20 20M1 21L21 1" stroke="currentColor" stroke-width="2"/></svg><svg fill="none" viewBox="0 0 50 50" id="icon-close-thin" xmlns="http://www.w3.org/2000/svg"><path d="M17 17l16 16M17 33l16-16" stroke="currentColor"/></svg><svg fill="none" viewBox="0 0 24 24" id="icon-discount-circle" xmlns="http://www.w3.org/2000/svg"><path d="M8.57 15.27l6.54-6.54M8.98 10.37a1.23 1.23 0 100-2.46 1.23 1.23 0 000 2.46zM15.52 16.09a1.23 1.23 0 100-2.46 1.23 1.23 0 000 2.46z" stroke="currentColor" stroke-width="1.5" stroke-linecap="round" stroke-linejoin="round"/><path d="M12 22c5.523 0 10-4.477 10-10S17.523 2 12 2 2 6.477 2 12s4.477 10 10 10z" stroke="currentColor" stroke-width="1.5" stroke-linecap="round" stroke-linejoin="round"/></svg><svg fill="none" viewBox="0 0 24 24" id="icon-dollar-circle" xmlns="http://www.w3.org/2000/svg"><path d="M8 11.4c0 .77.6 1.4 1.33 1.4h1.5c.64 0 1.16-.55 1.16-1.22 0-.73-.32-.99-.79-1.16l-2.4-.84c-.48-.17-.8-.43-.8-1.16 0-.67.52-1.22 1.16-1.22h1.5c.74.01 1.34.63 1.34 1.4M10 12.85v.74M10 6.41v.78" stroke="currentColor" stroke-width="1.5" stroke-linecap="round" stroke-linejoin="round"/><path d="M9.99 17.98A7.99 7.99 0 109.99 2a7.99 7.99 0 000 15.98zM12.98 19.88c.9 1.27 2.37 2.1 4.05 2.1 2.73 0 4.95-2.22 4.95-4.95 0-1.66-.82-3.13-2.07-4.03" stroke="currentColor" stroke-width="1.5" stroke-linecap="round" stroke-linejoin="round"/></svg><svg fill="none" viewBox="0 0 24 24" id="icon-done" xmlns="http://www.w3.org/2000/svg"><path d="M8.38 12l2.41 2.42 4.83-4.84" stroke="currentColor" stroke-width="1.5" stroke-linecap="round" stroke-linejoin="round"/><path d="M10.75 2.45c.69-.59 1.82-.59 2.52 0l1.58 1.36c.3.26.86.47 1.26.47h1.7c1.06 0 1.93.87 1.93 1.93v1.7c0 .39.21.96.47 1.26l1.36 1.58c.59.69.59 1.82 0 2.52l-1.36 1.58c-.26.3-.47.86-.47 1.26v1.7c0 1.06-.87 1.93-1.93 1.93h-1.7c-.39 0-.96.21-1.26.47l-1.58 1.36c-.69.59-1.82.59-2.52 0l-1.58-1.36c-.3-.26-.86-.47-1.26-.47H6.18c-1.06 0-1.93-.87-1.93-1.93V16.1c0-.39-.21-.95-.46-1.25l-1.35-1.59c-.58-.69-.58-1.81 0-2.5l1.35-1.59c.25-.3.46-.86.46-1.25V6.2c0-1.06.87-1.93 1.93-1.93h1.73c.39 0 .96-.21 1.26-.47l1.58-1.35z" stroke="currentColor" stroke-width="1.5" stroke-linecap="round" stroke-linejoin="round"/></svg><svg fill="none" viewBox="0 0 19 19" id="icon-email" xmlns="http://www.w3.org/2000/svg"><path d="M16.571 2.75H2.428c-.71 0-1.285.576-1.285 1.286v10.928c0 .71.575 1.286 1.285 1.286h14.143c.71 0 1.286-.576 1.286-1.286V4.036c0-.71-.576-1.286-1.286-1.286z" stroke="currentColor" stroke-width="1.2" stroke-linecap="round" stroke-linejoin="round"/><path d="M1.143 4.357l7.534 4.531c.23.136.522.21.823.21.3 0 .592-.074.823-.21l7.534-4.53" stroke="currentColor" stroke-width="1.2" stroke-linecap="round" stroke-linejoin="round"/></svg><svg fill="none" viewBox="0 0 21 14" id="icon-filter" xmlns="http://www.w3.org/2000/svg"><path d="M.5 10.75h20m-20-7.5h20" stroke="currentColor" stroke-linejoin="round"/><circle cx="5.5" cy="3.25" r="2.5" fill="#fff" stroke="currentColor" stroke-linejoin="round"/><circle cx="15.5" cy="10.75" r="2.5" fill="#fff" stroke="currentColor" stroke-linejoin="round"/></svg><svg fill="none" viewBox="0 0 20 20" id="icon-instagram" xmlns="http://www.w3.org/2000/svg"><path d="M15.203 5.176a.375.375 0 010-.75M15.202 5.176a.375.375 0 100-.75" stroke="currentColor" stroke-linecap="round" stroke-linejoin="round"/><path d="M1 4.857A3.857 3.857 0 014.857 1h10.286A3.857 3.857 0 0119 4.857v10.286A3.857 3.857 0 0115.143 19H4.857A3.857 3.857 0 011 15.143V4.857z" stroke="currentColor" stroke-linecap="round" stroke-linejoin="round"/><circle cx="10" cy="10" r="3.822" stroke="currentColor" stroke-linecap="round" stroke-linejoin="round"/></svg><svg fill="none" viewBox="0 0 20 18" id="icon-like" xmlns="http://www.w3.org/2000/svg"><path d="M10.006 17L2.367 9.63c-4.151-4.422 1.951-12.912 7.639-6.043 5.687-6.869 11.762 1.65 7.638 6.043L10.006 17z" stroke="currentColor" stroke-width="1.2" stroke-linecap="round" stroke-linejoin="round"/></svg><svg fill="none" viewBox="0 0 20 18" id="icon-like-filled" xmlns="http://www.w3.org/2000/svg"><path d="M10.006 17L2.367 9.63c-4.151-4.422 1.951-12.912 7.639-6.043 5.687-6.869 11.762 1.65 7.638 6.043L10.006 17z" fill="currentColor" stroke="currentColor" stroke-width="1.2" stroke-linecap="round" stroke-linejoin="round"/></svg><svg fill="none" viewBox="0 0 24 24" id="icon-location-pin" xmlns="http://www.w3.org/2000/svg"><path d="M19.714 8.571c0 5.143-7.714 11.143-7.714 11.143s-7.714-6-7.714-11.143C4.286 4.37 7.798.857 12 .857s7.714 3.513 7.714 7.714z" stroke="currentColor" stroke-width="1.2" stroke-linecap="round" stroke-linejoin="round"/><path d="M12 11.143A2.572 2.572 0 1012 6a2.572 2.572 0 000 5.143zM18.99 17.143h1.581l2.572 6H.857l2.571-6H5.01" stroke="currentColor" stroke-width="1.2" stroke-linecap="round" stroke-linejoin="round"/></svg><svg fill="none" viewBox="0 0 18 19" id="icon-phone" xmlns="http://www.w3.org/2000/svg"><path d="M6.747 17.19a4.093 4.093 0 01-5.132-.564l-.577-.564a1.386 1.386 0 010-1.938l2.45-2.425a1.373 1.373 0 011.925 0 1.386 1.386 0 001.938 0L11.2 7.85a1.36 1.36 0 000-1.937 1.373 1.373 0 010-1.925l2.437-2.437a1.386 1.386 0 011.938 0l.564.577a4.093 4.093 0 01.565 5.132 37.132 37.132 0 01-9.957 9.93z" stroke="currentColor" stroke-width="1.2" stroke-linecap="round" stroke-linejoin="round"/></svg><svg fill="none" viewBox="0 0 80 80" id="icon-play-circle" xmlns="http://www.w3.org/2000/svg"><circle cx="40" cy="40" r="40" fill="#fff"/><path d="M37 31v18l12-9-12-9z" fill="#231F20"/></svg><svg fill="none" viewBox="0 0 22 21" id="icon-search" xmlns="http://www.w3.org/2000/svg"><path d="M9.572 16.929a7.857 7.857 0 100-15.714 7.857 7.857 0 000 15.714z" stroke="currentColor" stroke-width="1.5" stroke-linecap="round" stroke-linejoin="round"/><path d="M20.286 19.786l-5-5" stroke="currentColor" stroke-width="1.5" stroke-linecap="square" stroke-linejoin="round"/></svg><svg fill="none" viewBox="0 0 18 18" id="icon-share" xmlns="http://www.w3.org/2000/svg"><path d="M3.535 11.893a2.893 2.893 0 100-5.786 2.893 2.893 0 000 5.786zM14.464 17.357a2.893 2.893 0 100-5.785 2.893 2.893 0 000 5.785zM14.464 6.429a2.893 2.893 0 100-5.786 2.893 2.893 0 000 5.786zM6.12 7.714l5.76-2.892M6.12 10.286l5.76 2.893" stroke="currentColor" stroke-width="1.2" stroke-linecap="round" stroke-linejoin="round"/></svg><svg fill="none" viewBox="0 0 15 14" id="icon-star" xmlns="http://www.w3.org/2000/svg"><path d="M7.5 0l2.037 4.697 5.096.485-3.838 3.389 1.113 4.997L7.5 10.965l-4.408 2.603L4.205 8.57.367 5.182l5.096-.485L7.5 0z" fill="#EFC88D"/></svg><svg fill="none" viewBox="0 0 18 19" id="icon-telegram" xmlns="http://www.w3.org/2000/svg"><path d="M17 1.5l-1.23 16-6.762-6.938L1 8.885 17 1.5z" stroke="currentColor" stroke-width="1.2" stroke-linecap="round" stroke-linejoin="round"/><path d="M6.025 9.933l1.204 6.946 4.404-3.648M9.002 10.528l2.565-2.052" stroke="currentColor" stroke-width="1.2" stroke-linecap="round" stroke-linejoin="round"/></svg><svg fill="none" viewBox="0 0 16 16" id="icon-thumb-up" xmlns="http://www.w3.org/2000/svg"><path d="M1.196 6.645h2.687v7.154H1.196a.567.567 0 01-.567-.567v-6.02a.567.567 0 01.567-.567v0zM3.883 6.644l2.88-4.603a1.236 1.236 0 011.066-.59 1.258 1.258 0 011.303 1.247v3.3h4.978a1.304 1.304 0 011.247 1.497l-.907 5.85a1.292 1.292 0 01-1.281 1.134H5.73a2.267 2.267 0 01-1.02-.238l-.817-.408M3.883 6.644V13.8" stroke="currentColor" stroke-linecap="round" stroke-linejoin="round"/></svg><svg fill="none" viewBox="0 0 16 16" id="icon-thumb-up-filled" xmlns="http://www.w3.org/2000/svg"><path d="M1.196 6.645h2.687v7.154H1.196a.567.567 0 01-.567-.567v-6.02a.567.567 0 01.567-.567v0zM3.883 6.644l2.88-4.603a1.236 1.236 0 011.066-.59 1.258 1.258 0 011.303 1.247v3.3h4.978a1.304 1.304 0 011.247 1.497l-.907 5.85a1.292 1.292 0 01-1.281 1.134H5.73a2.267 2.267 0 01-1.02-.238l-.817-.408M3.883 6.644V13.8" stroke="currentColor" stroke-linecap="round" stroke-linejoin="round"/></svg><svg fill="none" viewBox="0 0 22 22" id="icon-tiles" xmlns="http://www.w3.org/2000/svg"><path stroke="currentColor" stroke-width="1.2" stroke-linecap="round" stroke-linejoin="round" d="M.6.6h8.883v8.883H.6zM.6 12.516h8.883v8.883H.6zM12.518.6h8.883v8.883h-8.883zM12.518 12.516h8.883v8.883h-8.883z"/></svg><svg fill="none" viewBox="0 0 16 16" id="icon-time" xmlns="http://www.w3.org/2000/svg"><path d="M8 15.429A7.429 7.429 0 108 .572a7.429 7.429 0 000 14.857z" stroke="currentColor" stroke-linecap="round" stroke-linejoin="round"/><path d="M8 5.143V8l2.903 3.383" stroke="currentColor" stroke-linecap="round" stroke-linejoin="round"/></svg><svg fill="none" viewBox="0 0 19 19" id="icon-whatsapp" xmlns="http://www.w3.org/2000/svg"><path d="M9.5 1.63c-4.288.002-7.87 3.589-7.87 7.873 0 1.545.46 3.07 1.317 4.36l-1.32 3.513 4.42-.8a7.883 7.883 0 003.453.794c4.291.002 7.877-3.58 7.877-7.867 0-4.282-3.587-7.875-7.877-7.872z" stroke="currentColor" stroke-width="1.2" stroke-linecap="round" stroke-linejoin="round"/><path d="M9.934 12.97c1.164.747 2.381.084 3.155-.552.4-.33.388-.922.033-1.3l-1.079-1.149c-.341.341-1.006.51-1.468.37-.993-.303-1.41-.82-1.748-1.346-.388-.605.05-1.507.391-1.848l-1.16-1.06c-.33-.3-.827-.353-1.133-.03-.81.857-1.361 2.288-.79 3.179.966 1.503 2.296 2.772 3.799 3.736z" stroke="currentColor" stroke-width="1.2" stroke-linecap="round" stroke-linejoin="round"/></svg></svg>