<?xml version="1.0" encoding="utf-8"?><svg viewBox="0 0 24 24" xmlns="http://www.w3.org/2000/svg" xmlns:xlink="http://www.w3.org/1999/xlink"><style>:root>svg{display:none}:root>svg:target{display:block}</style><svg fill="none" viewBox="0 0 24 24" id="icon-building" xmlns="http://www.w3.org/2000/svg"><path d="M14.57 23.143H.855V6.857l6.858-6 6.857 6v16.286zM14.57 23.143h8.572v-12H14.57M7.715 23.143v-3.429M5.145 14.572h5.142M5.145 9.428h5.142" stroke="#231F20" stroke-width="1.5" stroke-linecap="round" stroke-linejoin="round"/></svg><svg fill="none" viewBox="0 0 16 16" id="icon-calendar" xmlns="http://www.w3.org/2000/svg"><path d="M1.715 2.286A1.143 1.143 0 00.572 3.429v10.857a1.143 1.143 0 001.143 1.143h12.572a1.143 1.143 0 001.142-1.143V3.429a1.143 1.143 0 00-1.142-1.143H12M.572 6.286H15.43M4 .572V4M12 .572V4M4 2.286h5.714" stroke="currentColor" stroke-linecap="round" stroke-linejoin="round"/></svg><svg fill="none" viewBox="0 0 19 19" id="icon-email" xmlns="http://www.w3.org/2000/svg"><path d="M16.571 2.75H2.428c-.71 0-1.285.576-1.285 1.286v10.928c0 .71.575 1.286 1.285 1.286h14.143c.71 0 1.286-.576 1.286-1.286V4.036c0-.71-.576-1.286-1.286-1.286z" stroke="currentColor" stroke-width="1.2" stroke-linecap="round" stroke-linejoin="round"/><path d="M1.143 4.357l7.534 4.531c.23.136.522.21.823.21.3 0 .592-.074.823-.21l7.534-4.53" stroke="currentColor" stroke-width="1.2" stroke-linecap="round" stroke-linejoin="round"/></svg><svg fill="none" viewBox="0 0 20 20" id="icon-instagram" xmlns="http://www.w3.org/2000/svg"><path d="M15.203 5.176a.375.375 0 010-.75M15.202 5.176a.375.375 0 100-.75" stroke="currentColor" stroke-linecap="round" stroke-linejoin="round"/><path d="M1 4.857A3.857 3.857 0 014.857 1h10.286A3.857 3.857 0 0119 4.857v10.286A3.857 3.857 0 0115.143 19H4.857A3.857 3.857 0 011 15.143V4.857z" stroke="currentColor" stroke-linecap="round" stroke-linejoin="round"/><circle cx="10" cy="10" r="3.822" stroke="currentColor" stroke-linecap="round" stroke-linejoin="round"/></svg><svg fill="none" viewBox="0 0 20 18" id="icon-like" xmlns="http://www.w3.org/2000/svg"><path d="M10.006 17L2.367 9.63c-4.151-4.422 1.951-12.912 7.639-6.043 5.687-6.869 11.762 1.65 7.638 6.043L10.006 17z" stroke="currentColor" stroke-width="1.2" stroke-linecap="round" stroke-linejoin="round"/></svg><svg fill="none" viewBox="0 0 20 18" id="icon-like-filled" xmlns="http://www.w3.org/2000/svg"><path d="M10.006 17L2.367 9.63c-4.151-4.422 1.951-12.912 7.639-6.043 5.687-6.869 11.762 1.65 7.638 6.043L10.006 17z" fill="currentColor" stroke="currentColor" stroke-width="1.2" stroke-linecap="round" stroke-linejoin="round"/></svg><svg fill="none" viewBox="0 0 18 19" id="icon-phone" xmlns="http://www.w3.org/2000/svg"><path d="M6.747 17.19a4.093 4.093 0 01-5.132-.564l-.577-.564a1.386 1.386 0 010-1.938l2.45-2.425a1.373 1.373 0 011.925 0 1.386 1.386 0 001.938 0L11.2 7.85a1.36 1.36 0 000-1.937 1.373 1.373 0 010-1.925l2.437-2.437a1.386 1.386 0 011.938 0l.564.577a4.093 4.093 0 01.565 5.132 37.132 37.132 0 01-9.957 9.93z" stroke="currentColor" stroke-width="1.2" stroke-linecap="round" stroke-linejoin="round"/></svg><svg fill="none" viewBox="0 0 18 19" id="icon-telegram" xmlns="http://www.w3.org/2000/svg"><path d="M17 1.5l-1.23 16-6.762-6.938L1 8.885 17 1.5z" stroke="currentColor" stroke-width="1.2" stroke-linecap="round" stroke-linejoin="round"/><path d="M6.025 9.933l1.204 6.946 4.404-3.648M9.002 10.528l2.565-2.052" stroke="currentColor" stroke-width="1.2" stroke-linecap="round" stroke-linejoin="round"/></svg><svg fill="none" viewBox="0 0 16 16" id="icon-thumb-up" xmlns="http://www.w3.org/2000/svg"><path d="M1.196 6.645h2.687v7.154H1.196a.567.567 0 01-.567-.567v-6.02a.567.567 0 01.567-.567v0zM3.883 6.644l2.88-4.603a1.236 1.236 0 011.066-.59 1.258 1.258 0 011.303 1.247v3.3h4.978a1.304 1.304 0 011.247 1.497l-.907 5.85a1.292 1.292 0 01-1.281 1.134H5.73a2.267 2.267 0 01-1.02-.238l-.817-.408M3.883 6.644V13.8" stroke="currentColor" stroke-linecap="round" stroke-linejoin="round"/></svg><svg fill="none" viewBox="0 0 16 16" id="icon-time" xmlns="http://www.w3.org/2000/svg"><path d="M8 15.429A7.429 7.429 0 108 .572a7.429 7.429 0 000 14.857z" stroke="currentColor" stroke-linecap="round" stroke-linejoin="round"/><path d="M8 5.143V8l2.903 3.383" stroke="currentColor" stroke-linecap="round" stroke-linejoin="round"/></svg><svg fill="none" viewBox="0 0 19 19" id="icon-whatsapp" xmlns="http://www.w3.org/2000/svg"><path d="M9.5 1.63c-4.288.002-7.87 3.589-7.87 7.873 0 1.545.46 3.07 1.317 4.36l-1.32 3.513 4.42-.8a7.883 7.883 0 003.453.794c4.291.002 7.877-3.58 7.877-7.867 0-4.282-3.587-7.875-7.877-7.872z" stroke="currentColor" stroke-width="1.2" stroke-linecap="round" stroke-linejoin="round"/><path d="M9.934 12.97c1.164.747 2.381.084 3.155-.552.4-.33.388-.922.033-1.3l-1.079-1.149c-.341.341-1.006.51-1.468.37-.993-.303-1.41-.82-1.748-1.346-.388-.605.05-1.507.391-1.848l-1.16-1.06c-.33-.3-.827-.353-1.133-.03-.81.857-1.361 2.288-.79 3.179.966 1.503 2.296 2.772 3.799 3.736z" stroke="currentColor" stroke-width="1.2" stroke-linecap="round" stroke-linejoin="round"/></svg></svg>